<svg xmlns="http://www.w3.org/2000/svg" xmlns:xlink="http://www.w3.org/1999/xlink" viewBox="0 0 457.51 464.07"><defs><style>.cls-1{fill:none;}.cls-2{fill:#fff;stroke:#231f20;stroke-miterlimit:10;stroke-width:11px;}.cls-3{clip-path:url(#clip-path);}.cls-4{fill:#231f20;}</style><clipPath id="clip-path" transform="translate(-0.73)"><circle class="cls-1" cx="229.49" cy="228.76" r="223.26"/></clipPath></defs><title>fife</title><g id="Layer_2" data-name="Layer 2"><circle class="cls-2" cx="228.76" cy="228.76" r="223.26"/></g><g id="Layer_3" data-name="Layer 3"><g class="cls-3"><path class="cls-4" d="M211.43,296.59a5.55,5.55,0,0,1-4.23,5.8c-7.74,1.92-24.93,7.56-33.72,12.79-13.68,8.15-17.92,18.25-29,23.79s-28.34,7.16-34.86,11.07c-2.38,1.43-24.43,1.63-29,2.93s-36.82,12.39-36.82,12.39l91.88,92.19L296,464.07s29.64-2.94,29.64-12.06-2.93-29.64,0-35.18S335,393.05,339,384.58c6.19-13,6.84-49.85,9.77-56.37S367,309,369.93,303.78s4.24-22.8,5.87-25.41,11.37-16.75,12.35-19,3-11.92,3.93-12.9,11.83-14.24,13-20.52c2.93-15.32-17.54-44.13-20.85-46.59-3.72-2.76-15.31-6.71-33.52-9-6.81-.88-51.19-3-77.25,7.41-2,.78-7.59,3.65-13.18,6.55a42.49,42.49,0,0,0-19.48,21C230.2,230.22,210,253.54,210,256.47S211,291.79,211.43,296.59Z" transform="translate(-0.73)"/><path class="cls-4" d="M268.41,230.22S203.9,122.71,188.26,110s-41-30.63-53.75-30.63c-7.08,0-20.6-1.39-30.31.46A23.82,23.82,0,0,0,85.77,96.78a25.32,25.32,0,0,0-1.11,5.41c0,3.91,28.71,54,40.07,65.48,11.68,11.82,35.19,34.21,35.19,34.21L242,279.09Z" transform="translate(-0.73)"/><path class="cls-4" d="M298.14,236.52S201,164,180.78,158s-52.24-13.45-66-9.41c-7.67,2.25-22.66,5.34-32.72,10-9.17,4.27-15.2,12.22-15.66,20.51a18.49,18.49,0,0,0,.17,5c1,3.39,44.8,37.59,60,43.93,15.65,6.51,46.81,18.41,46.81,18.41L281.94,287.2Z" transform="translate(-0.73)"/></g></g></svg>